<mxfile host="65bd71144e">
    <diagram id="q14IiLRXBmb8PRQ_uYk1" name="Page-1">
        <mxGraphModel dx="1468" dy="1134" grid="0" gridSize="10" guides="1" tooltips="1" connect="1" arrows="1" fold="1" page="1" pageScale="1" pageWidth="1169" pageHeight="827" background="#ffffff" math="0" shadow="0">
            <root>
                <mxCell id="0"/>
                <mxCell id="1" parent="0"/>
                <mxCell id="17" value="&lt;font style=&quot;font-size: 14px&quot;&gt;TOURNAMENT&lt;/font&gt;" style="html=1;overflow=block;blockSpacing=1;swimlane;childLayout=stackLayout;horizontal=1;horizontalStack=0;resizeParent=1;resizeParentMax=0;resizeLast=0;collapsible=0;marginBottom=0;swimlaneFillColor=#F5FBFF;startSize=43;whiteSpace=wrap;fontSize=18.5;fontStyle=1;align=center;spacing=0;strokeOpacity=100;rounded=1;absoluteArcSize=1;arcSize=9;strokeWidth=2.3;fillColor=#1ba1e2;fontColor=#ffffff;strokeColor=none;" parent="1" vertex="1">
                    <mxGeometry x="380" y="44" width="150" height="230" as="geometry"/>
                </mxCell>
                <mxCell id="18" value="&lt;div style=&quot;display: flex ; justify-content: center ; align-items: baseline ; line-height: 1.25 ; margin-top: -2px ; font-size: 15px&quot;&gt;&lt;span style=&quot;color: rgb(29 , 38 , 43)&quot;&gt;&lt;font style=&quot;font-size: 15px&quot;&gt;code tournament&lt;br&gt;&lt;/font&gt;&lt;/span&gt;&lt;/div&gt;&lt;div style=&quot;display: flex ; justify-content: center ; align-items: baseline ; line-height: 1.25 ; margin-top: -2px ; font-size: 15px&quot;&gt;&lt;span&gt;&lt;span style=&quot;color: rgb(29 , 38 , 43)&quot;&gt;&lt;font style=&quot;font-size: 15px&quot;&gt;title&lt;br&gt;&lt;/font&gt;&lt;/span&gt;&lt;/span&gt;&lt;/div&gt;&lt;div style=&quot;display: flex ; justify-content: center ; align-items: baseline ; line-height: 1.25 ; margin-top: -2px ; font-size: 15px&quot;&gt;&lt;span&gt;&lt;span style=&quot;color: rgb(29 , 38 , 43)&quot;&gt;&lt;font style=&quot;font-size: 15px&quot;&gt;date&lt;br&gt;&lt;/font&gt;&lt;/span&gt;&lt;/span&gt;&lt;/div&gt;&lt;div style=&quot;display: flex ; justify-content: center ; align-items: baseline ; line-height: 1.25 ; margin-top: -2px ; font-size: 15px&quot;&gt;&lt;span&gt;&lt;span style=&quot;color: rgb(29 , 38 , 43)&quot;&gt;&lt;font style=&quot;font-size: 15px&quot;&gt;description&lt;br&gt;&lt;/font&gt;&lt;/span&gt;&lt;/span&gt;&lt;/div&gt;&lt;div style=&quot;display: flex ; justify-content: center ; align-items: baseline ; line-height: 1.25 ; margin-top: -2px ; font-size: 15px&quot;&gt;&lt;span&gt;&lt;span style=&quot;color: rgb(29 , 38 , 43)&quot;&gt;&lt;font style=&quot;font-size: 15px&quot;&gt;url picture&lt;br&gt;&lt;/font&gt;&lt;/span&gt;&lt;/span&gt;&lt;/div&gt;&lt;div style=&quot;display: flex ; justify-content: center ; align-items: baseline ; line-height: 1.25 ; margin-top: -2px ; font-size: 15px&quot;&gt;&lt;span&gt;&lt;span style=&quot;color: rgb(29 , 38 , 43)&quot;&gt;&lt;font style=&quot;font-size: 15px&quot;&gt;nb playground&lt;br&gt;&lt;/font&gt;&lt;/span&gt;&lt;/span&gt;&lt;/div&gt;&lt;div style=&quot;display: flex ; justify-content: center ; align-items: baseline ; line-height: 1.25 ; margin-top: -2px ; font-size: 15px&quot;&gt;&lt;span&gt;&lt;span style=&quot;color: rgb(29 , 38 , 43)&quot;&gt;&lt;font style=&quot;font-size: 15px&quot;&gt;player limit&lt;br&gt;&lt;/font&gt;&lt;/span&gt;&lt;/span&gt;&lt;/div&gt;&lt;div style=&quot;display: flex ; justify-content: center ; align-items: baseline ; line-height: 1.25 ; margin-top: -2px ; font-size: 15px&quot;&gt;&lt;span&gt;&lt;span style=&quot;color: rgb(29 , 38 , 43)&quot;&gt;&lt;font style=&quot;font-size: 15px&quot;&gt;created at&lt;br&gt;&lt;/font&gt;&lt;/span&gt;&lt;/span&gt;&lt;/div&gt;&lt;div style=&quot;display: flex ; justify-content: center ; align-items: baseline ; line-height: 1.25 ; margin-top: -2px ; font-size: 15px&quot;&gt;&lt;span style=&quot;color: rgb(29 , 38 , 43)&quot;&gt;&lt;font style=&quot;font-size: 15px&quot;&gt;updated at&lt;/font&gt;&lt;/span&gt;&lt;/div&gt;" style="part=1;html=1;resizeHeight=0;verticalAlign=middle;spacingLeft=4;spacingRight=4;overflow=hidden;rotatable=0;points=[[0,0.5],[1,0.5]];portConstraint=eastwest;swimlaneFillColor=#F5FBFF;strokeOpacity=100;whiteSpace=wrap;fontSize=19.3;align=center;fillColor=#cce5ff;strokeColor=none;" parent="17" vertex="1">
                    <mxGeometry y="43" width="150" height="187" as="geometry"/>
                </mxCell>
                <mxCell id="23" value="&lt;font style=&quot;font-size: 14px&quot;&gt;CLUB&lt;/font&gt;" style="html=1;overflow=block;blockSpacing=1;swimlane;childLayout=stackLayout;horizontal=1;horizontalStack=0;resizeParent=1;resizeParentMax=0;resizeLast=0;collapsible=0;marginBottom=0;swimlaneFillColor=#F5FBFF;startSize=43;whiteSpace=wrap;fontSize=18.5;fontStyle=1;align=center;spacing=0;strokeOpacity=100;rounded=1;absoluteArcSize=1;arcSize=9;strokeWidth=2.3;fillColor=#1ba1e2;fontColor=#ffffff;strokeColor=none;" parent="1" vertex="1">
                    <mxGeometry x="730" y="34" width="150" height="250" as="geometry"/>
                </mxCell>
                <mxCell id="24" value="&lt;div style=&quot;display: flex ; justify-content: center ; align-items: baseline ; line-height: 1.25 ; margin-top: -2px ; font-size: 15px&quot;&gt;&lt;span style=&quot;color: rgb(29 , 38 , 43)&quot;&gt;&lt;div style=&quot;color: rgb(240 , 240 , 240) ; display: flex ; justify-content: center ; align-items: baseline ; line-height: 1.25 ; margin-top: -2px&quot;&gt;&lt;span style=&quot;color: rgb(0 , 0 , 0)&quot;&gt;code club&lt;br&gt;&lt;/span&gt;&lt;/div&gt;&lt;div style=&quot;color: rgb(240 , 240 , 240) ; display: flex ; justify-content: center ; align-items: baseline ; line-height: 1.25 ; margin-top: -2px&quot;&gt;&lt;span style=&quot;color: rgb(0 , 0 , 0)&quot;&gt;name&lt;br&gt;&lt;/span&gt;&lt;/div&gt;&lt;div style=&quot;color: rgb(240 , 240 , 240) ; display: flex ; justify-content: center ; align-items: baseline ; line-height: 1.25 ; margin-top: -2px&quot;&gt;&lt;span style=&quot;color: rgb(0 , 0 , 0)&quot;&gt;email&lt;br&gt;&lt;/span&gt;&lt;/div&gt;&lt;div style=&quot;color: rgb(240 , 240 , 240) ; display: flex ; justify-content: center ; align-items: baseline ; line-height: 1.25 ; margin-top: -2px&quot;&gt;&lt;span style=&quot;color: rgb(0 , 0 , 0)&quot;&gt;phone&lt;br&gt;&lt;/span&gt;&lt;/div&gt;&lt;div style=&quot;color: rgb(240 , 240 , 240) ; display: flex ; justify-content: center ; align-items: baseline ; line-height: 1.25 ; margin-top: -2px&quot;&gt;&lt;span style=&quot;color: rgb(0 , 0 , 0)&quot;&gt;description&lt;br&gt;&lt;/span&gt;&lt;/div&gt;&lt;div style=&quot;color: rgb(240 , 240 , 240) ; display: flex ; justify-content: center ; align-items: baseline ; line-height: 1.25 ; margin-top: -2px&quot;&gt;&lt;span style=&quot;color: rgb(0 , 0 , 0)&quot;&gt;id club&lt;br&gt;&lt;/span&gt;&lt;/div&gt;&lt;div style=&quot;color: rgb(240 , 240 , 240) ; display: flex ; justify-content: center ; align-items: baseline ; line-height: 1.25 ; margin-top: -2px&quot;&gt;&lt;span style=&quot;color: rgb(0 , 0 , 0)&quot;&gt;url logo&lt;br&gt;&lt;/span&gt;&lt;/div&gt;&lt;div style=&quot;color: rgb(240 , 240 , 240) ; display: flex ; justify-content: center ; align-items: baseline ; line-height: 1.25 ; margin-top: -2px&quot;&gt;&lt;span style=&quot;color: rgb(0 , 0 , 0)&quot;&gt;website&lt;br&gt;&lt;/span&gt;&lt;/div&gt;&lt;div style=&quot;color: rgb(240 , 240 , 240) ; display: flex ; justify-content: center ; align-items: baseline ; line-height: 1.25 ; margin-top: -2px&quot;&gt;&lt;span style=&quot;color: rgb(0 , 0 , 0)&quot;&gt;created at&lt;br&gt;&lt;/span&gt;&lt;/div&gt;&lt;div style=&quot;color: rgb(240 , 240 , 240) ; display: flex ; justify-content: center ; align-items: baseline ; line-height: 1.25 ; margin-top: -2px&quot;&gt;&lt;span style=&quot;font-size: 15px ; color: rgb(0 , 0 , 0)&quot;&gt;updated at&lt;/span&gt;&lt;/div&gt;&lt;/span&gt;&lt;/div&gt;" style="part=1;html=1;resizeHeight=0;verticalAlign=middle;spacingLeft=4;spacingRight=4;overflow=hidden;rotatable=0;points=[[0,0.5],[1,0.5]];portConstraint=eastwest;swimlaneFillColor=#F5FBFF;strokeOpacity=100;whiteSpace=wrap;fontSize=19.3;align=center;fillColor=#cce5ff;strokeColor=none;" parent="23" vertex="1">
                    <mxGeometry y="43" width="150" height="207" as="geometry"/>
                </mxCell>
                <mxCell id="84" style="edgeStyle=none;html=1;exitX=0.5;exitY=0;exitDx=0;exitDy=0;entryX=0.5;entryY=1.011;entryDx=0;entryDy=0;entryPerimeter=0;fontSize=15;fontColor=#000000;endArrow=none;endFill=0;strokeColor=#000000;startArrow=none;" parent="1" source="89" target="32" edge="1">
                    <mxGeometry relative="1" as="geometry">
                        <Array as="points"/>
                    </mxGeometry>
                </mxCell>
                <mxCell id="27" value="&lt;font style=&quot;font-size: 14px&quot;&gt;USER&lt;/font&gt;" style="html=1;overflow=block;blockSpacing=1;swimlane;childLayout=stackLayout;horizontal=1;horizontalStack=0;resizeParent=1;resizeParentMax=0;resizeLast=0;collapsible=0;marginBottom=0;swimlaneFillColor=#F5FBFF;startSize=43;whiteSpace=wrap;fontSize=18.5;fontStyle=1;align=center;spacing=0;strokeOpacity=100;rounded=1;absoluteArcSize=1;arcSize=9;strokeWidth=2.3;fillColor=#1ba1e2;fontColor=#ffffff;strokeColor=none;verticalAlign=middle;" parent="1" vertex="1">
                    <mxGeometry x="730" y="484" width="150" height="270" as="geometry"/>
                </mxCell>
                <mxCell id="28" value="&lt;div style=&quot;display: flex ; justify-content: center ; align-items: baseline ; line-height: 1.25 ; margin-top: -2px ; font-size: 15px&quot;&gt;&lt;span style=&quot;color: rgb(29 , 38 , 43)&quot;&gt;&lt;div style=&quot;color: rgb(240 , 240 , 240) ; display: flex ; justify-content: center ; align-items: baseline ; line-height: 1.25 ; margin-top: -2px&quot;&gt;&lt;span style=&quot;color: rgb(0 , 0 , 0)&quot;&gt;&lt;div style=&quot;color: rgb(240 , 240 , 240) ; display: flex ; justify-content: center ; align-items: baseline ; line-height: 1.25 ; margin-top: -2px&quot;&gt;&lt;span style=&quot;color: rgb(0 , 0 , 0)&quot;&gt;code user&lt;br&gt;&lt;/span&gt;&lt;/div&gt;&lt;div style=&quot;color: rgb(240 , 240 , 240) ; display: flex ; justify-content: center ; align-items: baseline ; line-height: 1.25 ; margin-top: -2px&quot;&gt;&lt;span style=&quot;color: rgb(0 , 0 , 0)&quot;&gt;firstname&lt;br&gt;&lt;/span&gt;&lt;/div&gt;&lt;div style=&quot;color: rgb(240 , 240 , 240) ; display: flex ; justify-content: center ; align-items: baseline ; line-height: 1.25 ; margin-top: -2px&quot;&gt;&lt;span style=&quot;color: rgb(0 , 0 , 0)&quot;&gt;lastname&lt;br&gt;&lt;/span&gt;&lt;/div&gt;&lt;div style=&quot;color: rgb(240 , 240 , 240) ; display: flex ; justify-content: center ; align-items: baseline ; line-height: 1.25 ; margin-top: -2px&quot;&gt;&lt;span style=&quot;color: rgb(0 , 0 , 0)&quot;&gt;age&lt;br&gt;&lt;/span&gt;&lt;/div&gt;&lt;div style=&quot;color: rgb(240 , 240 , 240) ; display: flex ; justify-content: center ; align-items: baseline ; line-height: 1.25 ; margin-top: -2px&quot;&gt;&lt;span style=&quot;color: rgb(0 , 0 , 0)&quot;&gt;password&lt;br&gt;&lt;/span&gt;&lt;/div&gt;&lt;div style=&quot;color: rgb(240 , 240 , 240) ; display: flex ; justify-content: center ; align-items: baseline ; line-height: 1.25 ; margin-top: -2px&quot;&gt;&lt;span style=&quot;color: rgb(0 , 0 , 0)&quot;&gt;player license&lt;br&gt;&lt;/span&gt;&lt;/div&gt;&lt;div style=&quot;color: rgb(240 , 240 , 240) ; display: flex ; justify-content: center ; align-items: baseline ; line-height: 1.25 ; margin-top: -2px&quot;&gt;&lt;span style=&quot;color: rgb(0 , 0 , 0)&quot;&gt;sexe&lt;br&gt;&lt;/span&gt;&lt;/div&gt;&lt;div style=&quot;color: rgb(240 , 240 , 240) ; display: flex ; justify-content: center ; align-items: baseline ; line-height: 1.25 ; margin-top: -2px&quot;&gt;&lt;span style=&quot;color: rgb(0 , 0 , 0)&quot;&gt;mail&lt;br&gt;&lt;/span&gt;&lt;/div&gt;&lt;div style=&quot;color: rgb(240 , 240 , 240) ; display: flex ; justify-content: center ; align-items: baseline ; line-height: 1.25 ; margin-top: -2px&quot;&gt;&lt;span style=&quot;color: rgb(0 , 0 , 0)&quot;&gt;url avatar&lt;br&gt;&lt;/span&gt;&lt;/div&gt;&lt;div style=&quot;color: rgb(240 , 240 , 240) ; display: flex ; justify-content: center ; align-items: baseline ; line-height: 1.25 ; margin-top: -2px&quot;&gt;&lt;span style=&quot;color: rgb(0 , 0 , 0)&quot;&gt;created at&lt;br&gt;&lt;/span&gt;&lt;/div&gt;&lt;div style=&quot;color: rgb(240 , 240 , 240) ; display: flex ; justify-content: center ; align-items: baseline ; line-height: 1.25 ; margin-top: -2px&quot;&gt;&lt;span style=&quot;color: rgb(0 , 0 , 0)&quot;&gt;updated at&lt;/span&gt;&lt;/div&gt;&lt;/span&gt;&lt;/div&gt;&lt;/span&gt;&lt;/div&gt;" style="part=1;html=1;resizeHeight=0;verticalAlign=middle;spacingLeft=4;spacingRight=4;overflow=hidden;rotatable=0;points=[[0,0.5],[1,0.5]];portConstraint=eastwest;swimlaneFillColor=#F5FBFF;strokeOpacity=100;whiteSpace=wrap;fontSize=19.3;align=center;fillColor=#cce5ff;strokeColor=none;" parent="27" vertex="1">
                    <mxGeometry y="43" width="150" height="227" as="geometry"/>
                </mxCell>
                <mxCell id="33" value="&lt;font style=&quot;font-size: 14px&quot;&gt;GAMETYPE&lt;/font&gt;" style="html=1;overflow=block;blockSpacing=1;swimlane;childLayout=stackLayout;horizontal=1;horizontalStack=0;resizeParent=1;resizeParentMax=0;resizeLast=0;collapsible=0;marginBottom=0;swimlaneFillColor=#F5FBFF;startSize=43;whiteSpace=wrap;fontSize=18.5;fontStyle=1;align=center;spacing=0;strokeOpacity=100;rounded=1;absoluteArcSize=1;arcSize=9;strokeWidth=2.3;fillColor=#1ba1e2;fontColor=#ffffff;strokeColor=none;" parent="1" vertex="1">
                    <mxGeometry x="30" y="184" width="150" height="110" as="geometry"/>
                </mxCell>
                <mxCell id="34" value="&lt;div style=&quot;display: flex ; justify-content: center ; align-items: baseline ; line-height: 1.25 ; margin-top: -2px ; font-size: 15px&quot;&gt;&lt;span style=&quot;color: rgb(29 , 38 , 43)&quot;&gt;&lt;font style=&quot;font-size: 15px&quot;&gt;code gametype&lt;br&gt;&lt;/font&gt;&lt;/span&gt;&lt;/div&gt;&lt;div style=&quot;display: flex ; justify-content: center ; align-items: baseline ; line-height: 1.25 ; margin-top: -2px ; font-size: 15px&quot;&gt;&lt;span&gt;&lt;font color=&quot;#1d262b&quot;&gt;name&lt;/font&gt;&lt;/span&gt;&lt;/div&gt;" style="part=1;html=1;resizeHeight=0;verticalAlign=middle;spacingLeft=4;spacingRight=4;overflow=hidden;rotatable=0;points=[[0,0.5],[1,0.5]];portConstraint=eastwest;swimlaneFillColor=#F5FBFF;strokeOpacity=100;whiteSpace=wrap;fontSize=19.3;align=center;fillColor=#cce5ff;strokeColor=none;" parent="33" vertex="1">
                    <mxGeometry y="43" width="150" height="67" as="geometry"/>
                </mxCell>
                <mxCell id="35" value="&lt;font style=&quot;font-size: 14px&quot;&gt;DISCIPLINE&lt;/font&gt;" style="html=1;overflow=block;blockSpacing=1;swimlane;childLayout=stackLayout;horizontal=1;horizontalStack=0;resizeParent=1;resizeParentMax=0;resizeLast=0;collapsible=0;marginBottom=0;swimlaneFillColor=#F5FBFF;startSize=43;whiteSpace=wrap;fontSize=18.5;fontStyle=1;align=center;spacing=0;strokeOpacity=100;rounded=1;absoluteArcSize=1;arcSize=9;strokeWidth=2.3;fillColor=#1ba1e2;fontColor=#ffffff;strokeColor=none;" parent="1" vertex="1">
                    <mxGeometry x="30" y="24" width="150" height="110" as="geometry"/>
                </mxCell>
                <mxCell id="36" value="&lt;div style=&quot;display: flex ; justify-content: center ; align-items: baseline ; line-height: 1.25 ; margin-top: -2px ; font-size: 15px&quot;&gt;&lt;span style=&quot;color: rgb(29 , 38 , 43)&quot;&gt;&lt;font style=&quot;font-size: 15px&quot;&gt;code discipline&lt;br&gt;&lt;/font&gt;&lt;/span&gt;&lt;/div&gt;&lt;div style=&quot;display: flex ; justify-content: center ; align-items: baseline ; line-height: 1.25 ; margin-top: -2px ; font-size: 15px&quot;&gt;&lt;span&gt;&lt;font color=&quot;#1d262b&quot;&gt;name&lt;/font&gt;&lt;/span&gt;&lt;/div&gt;" style="part=1;html=1;resizeHeight=0;verticalAlign=middle;spacingLeft=4;spacingRight=4;overflow=hidden;rotatable=0;points=[[0,0.5],[1,0.5]];portConstraint=eastwest;swimlaneFillColor=#F5FBFF;strokeOpacity=100;whiteSpace=wrap;fontSize=19.3;align=center;fillColor=#cce5ff;strokeColor=none;" parent="35" vertex="1">
                    <mxGeometry y="43" width="150" height="67" as="geometry"/>
                </mxCell>
                <mxCell id="98" style="edgeStyle=none;html=1;exitX=0.5;exitY=0;exitDx=0;exitDy=0;entryX=0.5;entryY=1;entryDx=0;entryDy=0;fontSize=15;fontColor=#000000;endArrow=none;endFill=0;strokeColor=#000000;" parent="1" source="37" target="96" edge="1">
                    <mxGeometry relative="1" as="geometry"/>
                </mxCell>
                <mxCell id="37" value="&lt;font style=&quot;font-size: 14px&quot;&gt;ROLE&lt;/font&gt;" style="html=1;overflow=block;blockSpacing=1;swimlane;childLayout=stackLayout;horizontal=1;horizontalStack=0;resizeParent=1;resizeParentMax=0;resizeLast=0;collapsible=0;marginBottom=0;swimlaneFillColor=#F5FBFF;startSize=43;whiteSpace=wrap;fontSize=18.5;fontStyle=1;align=center;spacing=0;strokeOpacity=100;rounded=1;absoluteArcSize=1;arcSize=9;strokeWidth=2.3;fillColor=#1ba1e2;fontColor=#ffffff;strokeColor=none;" parent="1" vertex="1">
                    <mxGeometry x="990" y="694" width="150" height="110" as="geometry"/>
                </mxCell>
                <mxCell id="38" value="&lt;div style=&quot;display: flex ; justify-content: center ; align-items: baseline ; line-height: 1.25 ; margin-top: -2px ; font-size: 15px&quot;&gt;&lt;span style=&quot;color: rgb(29 , 38 , 43)&quot;&gt;&lt;font style=&quot;font-size: 15px&quot;&gt;code role&lt;br&gt;&lt;/font&gt;&lt;/span&gt;&lt;/div&gt;&lt;div style=&quot;display: flex ; justify-content: center ; align-items: baseline ; line-height: 1.25 ; margin-top: -2px ; font-size: 15px&quot;&gt;&lt;span&gt;&lt;font color=&quot;#1d262b&quot;&gt;name&lt;/font&gt;&lt;/span&gt;&lt;/div&gt;" style="part=1;html=1;resizeHeight=0;verticalAlign=middle;spacingLeft=4;spacingRight=4;overflow=hidden;rotatable=0;points=[[0,0.5],[1,0.5]];portConstraint=eastwest;swimlaneFillColor=#F5FBFF;strokeOpacity=100;whiteSpace=wrap;fontSize=19.3;align=center;fillColor=#cce5ff;strokeColor=none;" parent="37" vertex="1">
                    <mxGeometry y="43" width="150" height="67" as="geometry"/>
                </mxCell>
                <mxCell id="40" value="&lt;font style=&quot;font-size: 14px&quot;&gt;MATCH&lt;/font&gt;" style="html=1;overflow=block;blockSpacing=1;swimlane;childLayout=stackLayout;horizontal=1;horizontalStack=0;resizeParent=1;resizeParentMax=0;resizeLast=0;collapsible=0;marginBottom=0;swimlaneFillColor=#F5FBFF;startSize=43;whiteSpace=wrap;fontSize=18.5;fontStyle=1;align=center;spacing=0;strokeOpacity=100;rounded=1;absoluteArcSize=1;arcSize=9;strokeWidth=2.3;fillColor=#1ba1e2;fontColor=#ffffff;strokeColor=none;" parent="1" vertex="1">
                    <mxGeometry x="380" y="430" width="150" height="110" as="geometry"/>
                </mxCell>
                <mxCell id="41" value="&lt;div style=&quot;display: flex ; justify-content: center ; align-items: baseline ; line-height: 1.25 ; margin-top: -2px ; font-size: 15px&quot;&gt;&lt;span style=&quot;color: rgb(29 , 38 , 43)&quot;&gt;&lt;font style=&quot;font-size: 15px&quot;&gt;code match&lt;br&gt;&lt;/font&gt;&lt;/span&gt;&lt;/div&gt;&lt;div style=&quot;display: flex ; justify-content: center ; align-items: baseline ; line-height: 1.25 ; margin-top: -2px ; font-size: 15px&quot;&gt;&lt;span&gt;&lt;font color=&quot;#1d262b&quot;&gt;status&lt;/font&gt;&lt;/span&gt;&lt;/div&gt;" style="part=1;html=1;resizeHeight=0;verticalAlign=middle;spacingLeft=4;spacingRight=4;overflow=hidden;rotatable=0;points=[[0,0.5],[1,0.5]];portConstraint=eastwest;swimlaneFillColor=#F5FBFF;strokeOpacity=100;whiteSpace=wrap;fontSize=19.3;align=center;fillColor=#cce5ff;strokeColor=none;" parent="40" vertex="1">
                    <mxGeometry y="43" width="150" height="67" as="geometry"/>
                </mxCell>
                <mxCell id="42" value="&lt;font style=&quot;font-size: 14px&quot;&gt;TEAM&lt;/font&gt;" style="html=1;overflow=block;blockSpacing=1;swimlane;childLayout=stackLayout;horizontal=1;horizontalStack=0;resizeParent=1;resizeParentMax=0;resizeLast=0;collapsible=0;marginBottom=0;swimlaneFillColor=#F5FBFF;startSize=43;whiteSpace=wrap;fontSize=18.5;fontStyle=1;align=center;spacing=0;strokeOpacity=100;rounded=1;absoluteArcSize=1;arcSize=9;strokeWidth=2.3;fillColor=#1ba1e2;fontColor=#ffffff;strokeColor=none;" parent="1" vertex="1">
                    <mxGeometry x="380" y="694" width="150" height="110" as="geometry"/>
                </mxCell>
                <mxCell id="43" value="&lt;div style=&quot;display: flex ; justify-content: center ; align-items: baseline ; line-height: 1.25 ; margin-top: -2px ; font-size: 15px&quot;&gt;&lt;span style=&quot;color: rgb(29 , 38 , 43)&quot;&gt;&lt;font style=&quot;font-size: 15px&quot;&gt;code team&lt;br&gt;&lt;/font&gt;&lt;/span&gt;&lt;/div&gt;&lt;div style=&quot;display: flex ; justify-content: center ; align-items: baseline ; line-height: 1.25 ; margin-top: -2px ; font-size: 15px&quot;&gt;&lt;span&gt;&lt;font color=&quot;#1d262b&quot;&gt;score&lt;/font&gt;&lt;/span&gt;&lt;/div&gt;" style="part=1;html=1;resizeHeight=0;verticalAlign=middle;spacingLeft=4;spacingRight=4;overflow=hidden;rotatable=0;points=[[0,0.5],[1,0.5]];portConstraint=eastwest;swimlaneFillColor=#F5FBFF;strokeOpacity=100;whiteSpace=wrap;fontSize=19.3;align=center;fillColor=#cce5ff;strokeColor=none;" parent="42" vertex="1">
                    <mxGeometry y="43" width="150" height="67" as="geometry"/>
                </mxCell>
                <mxCell id="44" value="&lt;font style=&quot;font-size: 14px&quot;&gt;PLAYER&lt;/font&gt;" style="html=1;overflow=block;blockSpacing=1;swimlane;childLayout=stackLayout;horizontal=1;horizontalStack=0;resizeParent=1;resizeParentMax=0;resizeLast=0;collapsible=0;marginBottom=0;swimlaneFillColor=#F5FBFF;startSize=43;whiteSpace=wrap;fontSize=18.5;fontStyle=1;align=center;spacing=0;strokeOpacity=100;rounded=1;absoluteArcSize=1;arcSize=9;strokeWidth=2.3;fillColor=#1ba1e2;fontColor=#ffffff;strokeColor=none;" parent="1" vertex="1">
                    <mxGeometry x="30" y="704" width="150" height="90" as="geometry"/>
                </mxCell>
                <mxCell id="45" value="&lt;div style=&quot;display: flex ; justify-content: center ; align-items: baseline ; line-height: 1.25 ; margin-top: -2px ; font-size: 15px&quot;&gt;&lt;span style=&quot;color: rgb(29 , 38 , 43)&quot;&gt;&lt;font style=&quot;font-size: 15px&quot;&gt;code player&lt;/font&gt;&lt;/span&gt;&lt;/div&gt;" style="part=1;html=1;resizeHeight=0;verticalAlign=middle;spacingLeft=4;spacingRight=4;overflow=hidden;rotatable=0;points=[[0,0.5],[1,0.5]];portConstraint=eastwest;swimlaneFillColor=#F5FBFF;strokeOpacity=100;whiteSpace=wrap;fontSize=19.3;align=center;fillColor=#cce5ff;strokeColor=none;" parent="44" vertex="1">
                    <mxGeometry y="43" width="150" height="47" as="geometry"/>
                </mxCell>
                <mxCell id="47" style="edgeStyle=none;html=1;exitX=1;exitY=0.5;exitDx=0;exitDy=0;entryX=0.003;entryY=0.077;entryDx=0;entryDy=0;entryPerimeter=0;fontSize=15;fontColor=#000000;startArrow=none;strokeColor=#000000;endArrow=none;endFill=0;" parent="1" source="57" target="18" edge="1">
                    <mxGeometry relative="1" as="geometry"/>
                </mxCell>
                <UserObject label="&lt;font color=&quot;#000000&quot; style=&quot;font-size: 15px&quot;&gt;HAS&lt;/font&gt;" lucidchartObjectId="G_kybPbdynS-" id="46">
                    <mxCell style="html=1;overflow=block;blockSpacing=1;whiteSpace=wrap;ellipse;fontSize=20.2;spacing=3.8;strokeColor=none;strokeOpacity=100;fillOpacity=100;rounded=1;absoluteArcSize=1;arcSize=9;fillColor=#f4d9ff;strokeWidth=2.3;" parent="1" vertex="1">
                        <mxGeometry x="246" y="80" width="65" height="42" as="geometry"/>
                    </mxCell>
                </UserObject>
                <mxCell id="48" value="" style="edgeStyle=none;html=1;exitX=1;exitY=0.5;exitDx=0;exitDy=0;entryX=0;entryY=0.5;entryDx=0;entryDy=0;fontSize=15;fontColor=#000000;endArrow=none;startArrow=none;strokeColor=#000000;" parent="1" source="52" target="46" edge="1">
                    <mxGeometry relative="1" as="geometry">
                        <mxPoint x="180" y="100.5" as="sourcePoint"/>
                        <mxPoint x="380.45000000000005" y="101.399" as="targetPoint"/>
                    </mxGeometry>
                </mxCell>
                <mxCell id="49" style="edgeStyle=none;html=1;exitX=1;exitY=0.5;exitDx=0;exitDy=0;entryX=-0.003;entryY=0.813;entryDx=0;entryDy=0;fontSize=15;fontColor=#000000;startArrow=none;entryPerimeter=0;endArrow=none;endFill=0;strokeColor=#000000;" parent="1" source="60" target="18" edge="1">
                    <mxGeometry relative="1" as="geometry">
                        <mxPoint x="380.00000000000006" y="239.399" as="targetPoint"/>
                    </mxGeometry>
                </mxCell>
                <UserObject label="&lt;font color=&quot;#000000&quot; style=&quot;font-size: 15px&quot;&gt;HAS&lt;/font&gt;" lucidchartObjectId="G_kybPbdynS-" id="50">
                    <mxCell style="html=1;overflow=block;blockSpacing=1;whiteSpace=wrap;ellipse;fontSize=20.2;spacing=3.8;strokeColor=none;strokeOpacity=100;fillOpacity=100;rounded=1;absoluteArcSize=1;arcSize=9;fillColor=#f4d9ff;strokeWidth=2.3;" parent="1" vertex="1">
                        <mxGeometry x="245" y="219" width="65.45" height="40" as="geometry"/>
                    </mxCell>
                </UserObject>
                <mxCell id="51" value="" style="edgeStyle=none;html=1;exitX=1;exitY=0.5;exitDx=0;exitDy=0;entryX=0;entryY=0.5;entryDx=0;entryDy=0;fontSize=15;fontColor=#000000;endArrow=none;startArrow=none;strokeColor=#000000;" parent="1" source="54" target="50" edge="1">
                    <mxGeometry relative="1" as="geometry">
                        <mxPoint x="179.55" y="238.5" as="sourcePoint"/>
                        <mxPoint x="380.00000000000006" y="239.399" as="targetPoint"/>
                    </mxGeometry>
                </mxCell>
                <UserObject label="&lt;font style=&quot;font-size: 15px ; line-height: 1&quot;&gt;0,N&lt;/font&gt;" lucidchartObjectId="3bly9.hPKQTv" id="52">
                    <mxCell style="html=1;overflow=block;blockSpacing=1;whiteSpace=wrap;fontSize=20.2;spacing=3.8;strokeOpacity=0;fillOpacity=100;rounded=1;absoluteArcSize=1;arcSize=9;fillColor=none;strokeWidth=2;align=center;strokeColor=#000000;fontColor=#000000;" parent="1" vertex="1">
                        <mxGeometry x="196" y="84" width="35" height="34" as="geometry"/>
                    </mxCell>
                </UserObject>
                <mxCell id="53" value="" style="edgeStyle=none;html=1;exitX=1;exitY=0.5;exitDx=0;exitDy=0;entryX=0;entryY=0.5;entryDx=0;entryDy=0;fontSize=15;fontColor=#000000;endArrow=none;strokeColor=#000000;" parent="1" source="36" target="52" edge="1">
                    <mxGeometry relative="1" as="geometry">
                        <mxPoint x="180" y="100.5" as="sourcePoint"/>
                        <mxPoint x="246" y="101" as="targetPoint"/>
                    </mxGeometry>
                </mxCell>
                <UserObject label="&lt;font style=&quot;font-size: 15px ; line-height: 1&quot;&gt;0,N&lt;/font&gt;" lucidchartObjectId="3bly9.hPKQTv" id="54">
                    <mxCell style="html=1;overflow=block;blockSpacing=1;whiteSpace=wrap;fontSize=20.2;spacing=3.8;strokeOpacity=0;fillOpacity=100;rounded=1;absoluteArcSize=1;arcSize=9;fillColor=none;strokeWidth=2;align=center;strokeColor=#000000;fontColor=#000000;" parent="1" vertex="1">
                        <mxGeometry x="196" y="222" width="35" height="34" as="geometry"/>
                    </mxCell>
                </UserObject>
                <mxCell id="56" value="" style="edgeStyle=none;html=1;exitX=1.007;exitY=0.177;exitDx=0;exitDy=0;entryX=0;entryY=0.5;entryDx=0;entryDy=0;fontSize=15;fontColor=#000000;endArrow=none;exitPerimeter=0;strokeColor=#000000;" parent="1" source="34" target="54" edge="1">
                    <mxGeometry relative="1" as="geometry">
                        <mxPoint x="179.54999999999995" y="238.18899999999996" as="sourcePoint"/>
                        <mxPoint x="244.99999999999977" y="239" as="targetPoint"/>
                    </mxGeometry>
                </mxCell>
                <UserObject label="&lt;font style=&quot;font-size: 15px ; line-height: 1&quot;&gt;1,1&lt;/font&gt;" lucidchartObjectId="3bly9.hPKQTv" id="57">
                    <mxCell style="html=1;overflow=block;blockSpacing=1;whiteSpace=wrap;fontSize=20.2;spacing=3.8;strokeOpacity=0;fillOpacity=100;rounded=1;absoluteArcSize=1;arcSize=9;fillColor=none;strokeWidth=2;align=center;strokeColor=#000000;fontColor=#000000;" parent="1" vertex="1">
                        <mxGeometry x="325" y="84" width="35" height="34" as="geometry"/>
                    </mxCell>
                </UserObject>
                <mxCell id="58" value="" style="edgeStyle=none;html=1;exitX=1;exitY=0.5;exitDx=0;exitDy=0;entryX=0;entryY=0.5;entryDx=0;entryDy=0;fontSize=15;fontColor=#000000;startArrow=none;endArrow=none;strokeColor=#000000;" parent="1" source="46" target="57" edge="1">
                    <mxGeometry relative="1" as="geometry">
                        <mxPoint x="311.00000000000114" y="101" as="sourcePoint"/>
                        <mxPoint x="380.45000000000005" y="101.399" as="targetPoint"/>
                    </mxGeometry>
                </mxCell>
                <UserObject label="&lt;font style=&quot;font-size: 15px ; line-height: 1&quot;&gt;1,1&lt;/font&gt;" lucidchartObjectId="3bly9.hPKQTv" id="60">
                    <mxCell style="html=1;overflow=block;blockSpacing=1;whiteSpace=wrap;fontSize=20.2;spacing=3.8;strokeOpacity=0;fillOpacity=100;rounded=1;absoluteArcSize=1;arcSize=9;fillColor=none;strokeWidth=2;align=center;strokeColor=#000000;fontColor=#000000;" parent="1" vertex="1">
                        <mxGeometry x="325" y="222" width="35" height="34" as="geometry"/>
                    </mxCell>
                </UserObject>
                <mxCell id="61" value="" style="edgeStyle=none;html=1;exitX=1;exitY=0.5;exitDx=0;exitDy=0;entryX=0;entryY=0.5;entryDx=0;entryDy=0;fontSize=15;fontColor=#000000;startArrow=none;endArrow=none;strokeColor=#000000;" parent="1" source="50" target="60" edge="1">
                    <mxGeometry relative="1" as="geometry">
                        <mxPoint x="379.55000000000007" y="239.031" as="targetPoint"/>
                        <mxPoint x="310.45000000000084" y="239" as="sourcePoint"/>
                    </mxGeometry>
                </mxCell>
                <mxCell id="62" style="edgeStyle=none;html=1;exitX=1;exitY=0.5;exitDx=0;exitDy=0;entryX=0.006;entryY=0.301;entryDx=0;entryDy=0;fontSize=15;fontColor=#000000;startArrow=none;strokeColor=#000000;endArrow=none;endFill=0;entryPerimeter=0;" parent="1" source="67" target="24" edge="1">
                    <mxGeometry relative="1" as="geometry">
                        <mxPoint x="730" y="163.399" as="targetPoint"/>
                    </mxGeometry>
                </mxCell>
                <UserObject label="&lt;font color=&quot;#000000&quot; style=&quot;font-size: 15px&quot;&gt;HAS&lt;/font&gt;" lucidchartObjectId="G_kybPbdynS-" id="63">
                    <mxCell style="html=1;overflow=block;blockSpacing=1;whiteSpace=wrap;ellipse;fontSize=20.2;spacing=3.8;strokeColor=none;strokeOpacity=100;fillOpacity=100;rounded=1;absoluteArcSize=1;arcSize=9;fillColor=#f4d9ff;strokeWidth=2.3;" parent="1" vertex="1">
                        <mxGeometry x="600" y="118" width="65" height="42" as="geometry"/>
                    </mxCell>
                </UserObject>
                <mxCell id="64" value="" style="edgeStyle=none;html=1;exitX=1;exitY=0.5;exitDx=0;exitDy=0;entryX=0;entryY=0.5;entryDx=0;entryDy=0;fontSize=15;fontColor=#000000;endArrow=none;startArrow=none;strokeColor=#000000;" parent="1" source="65" target="63" edge="1">
                    <mxGeometry relative="1" as="geometry">
                        <mxPoint x="534" y="138.5" as="sourcePoint"/>
                        <mxPoint x="734.45" y="139.399" as="targetPoint"/>
                    </mxGeometry>
                </mxCell>
                <UserObject label="&lt;font style=&quot;font-size: 15px ; line-height: 1&quot;&gt;1,1&lt;/font&gt;" lucidchartObjectId="3bly9.hPKQTv" id="65">
                    <mxCell style="html=1;overflow=block;blockSpacing=1;whiteSpace=wrap;fontSize=20.2;spacing=3.8;strokeOpacity=0;fillOpacity=100;rounded=1;absoluteArcSize=1;arcSize=9;fillColor=none;strokeWidth=2;align=center;strokeColor=#000000;fontColor=#000000;" parent="1" vertex="1">
                        <mxGeometry x="550" y="122" width="35" height="34" as="geometry"/>
                    </mxCell>
                </UserObject>
                <mxCell id="66" value="" style="edgeStyle=none;html=1;exitX=1.011;exitY=0.278;exitDx=0;exitDy=0;entryX=0;entryY=0.5;entryDx=0;entryDy=0;fontSize=15;fontColor=#000000;endArrow=none;exitPerimeter=0;strokeColor=#000000;" parent="1" source="18" target="65" edge="1">
                    <mxGeometry relative="1" as="geometry">
                        <mxPoint x="529.55" y="162.5" as="sourcePoint"/>
                        <mxPoint x="595.55" y="163" as="targetPoint"/>
                    </mxGeometry>
                </mxCell>
                <UserObject label="&lt;font style=&quot;font-size: 15px ; line-height: 1&quot;&gt;0,N&lt;/font&gt;" lucidchartObjectId="3bly9.hPKQTv" id="67">
                    <mxCell style="html=1;overflow=block;blockSpacing=1;whiteSpace=wrap;fontSize=20.2;spacing=3.8;strokeOpacity=0;fillOpacity=100;rounded=1;absoluteArcSize=1;arcSize=9;fillColor=none;strokeWidth=2;align=center;strokeColor=#000000;fontColor=#000000;" parent="1" vertex="1">
                        <mxGeometry x="679" y="122" width="35" height="34" as="geometry"/>
                    </mxCell>
                </UserObject>
                <mxCell id="68" value="" style="edgeStyle=none;html=1;exitX=1;exitY=0.5;exitDx=0;exitDy=0;entryX=0;entryY=0.5;entryDx=0;entryDy=0;fontSize=15;fontColor=#000000;startArrow=none;endArrow=none;strokeColor=#000000;" parent="1" source="63" target="67" edge="1">
                    <mxGeometry relative="1" as="geometry">
                        <mxPoint x="665.0000000000011" y="139" as="sourcePoint"/>
                        <mxPoint x="734.45" y="139.399" as="targetPoint"/>
                    </mxGeometry>
                </mxCell>
                <mxCell id="31" value="&lt;font style=&quot;font-size: 14px&quot;&gt;ADDRESS&lt;/font&gt;" style="html=1;overflow=block;blockSpacing=1;swimlane;childLayout=stackLayout;horizontal=1;horizontalStack=0;resizeParent=1;resizeParentMax=0;resizeLast=0;collapsible=0;marginBottom=0;swimlaneFillColor=#F5FBFF;startSize=43;whiteSpace=wrap;fontSize=18.5;fontStyle=1;align=center;spacing=0;strokeOpacity=100;rounded=1;absoluteArcSize=1;arcSize=9;strokeWidth=2.3;fillColor=#1ba1e2;fontColor=#ffffff;strokeColor=none;" parent="1" vertex="1">
                    <mxGeometry x="990" y="214" width="150" height="200" as="geometry"/>
                </mxCell>
                <mxCell id="32" value="&lt;div style=&quot;display: flex ; justify-content: center ; align-items: baseline ; line-height: 1.25 ; margin-top: -2px ; font-size: 15px&quot;&gt;&lt;span style=&quot;color: rgb(29 , 38 , 43)&quot;&gt;&lt;div style=&quot;color: rgb(240 , 240 , 240) ; display: flex ; justify-content: center ; align-items: baseline ; line-height: 1.25 ; margin-top: -2px&quot;&gt;&lt;span style=&quot;color: rgb(0 , 0 , 0)&quot;&gt;code address&lt;br&gt;&lt;/span&gt;&lt;/div&gt;&lt;div style=&quot;color: rgb(240 , 240 , 240) ; display: flex ; justify-content: center ; align-items: baseline ; line-height: 1.25 ; margin-top: -2px&quot;&gt;&lt;span style=&quot;color: rgb(0 , 0 , 0)&quot;&gt;street nb&lt;br&gt;&lt;/span&gt;&lt;/div&gt;&lt;div style=&quot;color: rgb(240 , 240 , 240) ; display: flex ; justify-content: center ; align-items: baseline ; line-height: 1.25 ; margin-top: -2px&quot;&gt;&lt;span style=&quot;color: rgb(0 , 0 , 0)&quot;&gt;street&lt;br&gt;&lt;/span&gt;&lt;/div&gt;&lt;div style=&quot;color: rgb(240 , 240 , 240) ; display: flex ; justify-content: center ; align-items: baseline ; line-height: 1.25 ; margin-top: -2px&quot;&gt;&lt;span style=&quot;color: rgb(0 , 0 , 0)&quot;&gt;zipcode&lt;br&gt;&lt;/span&gt;&lt;/div&gt;&lt;div style=&quot;color: rgb(240 , 240 , 240) ; display: flex ; justify-content: center ; align-items: baseline ; line-height: 1.25 ; margin-top: -2px&quot;&gt;&lt;span style=&quot;color: rgb(0 , 0 , 0)&quot;&gt;city&lt;br&gt;&lt;/span&gt;&lt;/div&gt;&lt;div style=&quot;color: rgb(240 , 240 , 240) ; display: flex ; justify-content: center ; align-items: baseline ; line-height: 1.25 ; margin-top: -2px&quot;&gt;&lt;span style=&quot;color: rgb(0 , 0 , 0)&quot;&gt;country&lt;br&gt;&lt;/span&gt;&lt;/div&gt;&lt;div style=&quot;color: rgb(240 , 240 , 240) ; display: flex ; justify-content: center ; align-items: baseline ; line-height: 1.25 ; margin-top: -2px&quot;&gt;&lt;span style=&quot;color: rgb(0 , 0 , 0)&quot;&gt;complement&lt;/span&gt;&lt;/div&gt;&lt;/span&gt;&lt;/div&gt;" style="part=1;html=1;resizeHeight=0;verticalAlign=middle;spacingLeft=4;spacingRight=4;overflow=hidden;rotatable=0;points=[[0,0.5],[1,0.5]];portConstraint=eastwest;swimlaneFillColor=#F5FBFF;strokeOpacity=100;whiteSpace=wrap;fontSize=19.3;align=center;fillColor=#cce5ff;strokeColor=none;" parent="31" vertex="1">
                    <mxGeometry y="43" width="150" height="157" as="geometry"/>
                </mxCell>
                <mxCell id="70" style="edgeStyle=none;html=1;exitX=0.5;exitY=0;exitDx=0;exitDy=0;fontSize=15;fontColor=#000000;endArrow=none;endFill=0;strokeColor=#000000;startArrow=none;" parent="1" source="72" edge="1">
                    <mxGeometry relative="1" as="geometry">
                        <mxPoint x="805" y="284" as="targetPoint"/>
                    </mxGeometry>
                </mxCell>
                <mxCell id="71" style="edgeStyle=none;html=1;exitX=0.5;exitY=1;exitDx=0;exitDy=0;entryX=0.5;entryY=0;entryDx=0;entryDy=0;fontSize=15;fontColor=#000000;endArrow=none;endFill=0;strokeColor=#000000;startArrow=none;" parent="1" source="74" target="27" edge="1">
                    <mxGeometry relative="1" as="geometry"/>
                </mxCell>
                <UserObject label="&lt;font color=&quot;#000000&quot; style=&quot;font-size: 15px&quot;&gt;HAS&lt;/font&gt;" lucidchartObjectId="G_kybPbdynS-" id="69">
                    <mxCell style="html=1;overflow=block;blockSpacing=1;whiteSpace=wrap;ellipse;fontSize=20.2;spacing=3.8;strokeColor=none;strokeOpacity=100;fillOpacity=100;rounded=1;absoluteArcSize=1;arcSize=9;fillColor=#f4d9ff;strokeWidth=2.3;" parent="1" vertex="1">
                        <mxGeometry x="772.5" y="364" width="65" height="42" as="geometry"/>
                    </mxCell>
                </UserObject>
                <UserObject label="&lt;font style=&quot;font-size: 15px ; line-height: 1&quot;&gt;1,N&lt;/font&gt;" lucidchartObjectId="3bly9.hPKQTv" id="72">
                    <mxCell style="html=1;overflow=block;blockSpacing=1;whiteSpace=wrap;fontSize=20.2;spacing=3.8;strokeOpacity=0;fillOpacity=100;rounded=1;absoluteArcSize=1;arcSize=9;fillColor=none;strokeWidth=2;align=center;strokeColor=#000000;fontColor=#000000;" parent="1" vertex="1">
                        <mxGeometry x="787.5" y="310" width="35" height="34" as="geometry"/>
                    </mxCell>
                </UserObject>
                <mxCell id="73" value="" style="edgeStyle=none;html=1;exitX=0.5;exitY=0;exitDx=0;exitDy=0;fontSize=15;fontColor=#000000;endArrow=none;endFill=0;strokeColor=#000000;" parent="1" source="69" target="72" edge="1">
                    <mxGeometry relative="1" as="geometry">
                        <mxPoint x="805" y="354" as="sourcePoint"/>
                        <mxPoint x="805" y="284" as="targetPoint"/>
                    </mxGeometry>
                </mxCell>
                <UserObject label="&lt;font style=&quot;font-size: 15px ; line-height: 1&quot;&gt;1,1&lt;/font&gt;" lucidchartObjectId="3bly9.hPKQTv" id="74">
                    <mxCell style="html=1;overflow=block;blockSpacing=1;whiteSpace=wrap;fontSize=20.2;spacing=3.8;strokeOpacity=0;fillOpacity=100;rounded=1;absoluteArcSize=1;arcSize=9;fillColor=none;strokeWidth=2;align=center;strokeColor=#000000;fontColor=#000000;" parent="1" vertex="1">
                        <mxGeometry x="787.5" y="430" width="35" height="34" as="geometry"/>
                    </mxCell>
                </UserObject>
                <mxCell id="75" value="" style="edgeStyle=none;html=1;exitX=0.5;exitY=1;exitDx=0;exitDy=0;entryX=0.5;entryY=0;entryDx=0;entryDy=0;fontSize=15;fontColor=#000000;endArrow=none;endFill=0;strokeColor=#000000;" parent="1" source="69" target="74" edge="1">
                    <mxGeometry relative="1" as="geometry">
                        <mxPoint x="805" y="396.0000000000001" as="sourcePoint"/>
                        <mxPoint x="805" y="484.0000000000001" as="targetPoint"/>
                    </mxGeometry>
                </mxCell>
                <mxCell id="78" style="edgeStyle=none;html=1;exitX=0;exitY=0.5;exitDx=0;exitDy=0;entryX=1.008;entryY=0.118;entryDx=0;entryDy=0;fontSize=15;fontColor=#000000;endArrow=none;endFill=0;strokeColor=#000000;startArrow=none;entryPerimeter=0;" parent="1" source="77" target="24" edge="1">
                    <mxGeometry relative="1" as="geometry"/>
                </mxCell>
                <UserObject label="&lt;font color=&quot;#000000&quot; style=&quot;font-size: 15px&quot;&gt;HAS&lt;/font&gt;" lucidchartObjectId="G_kybPbdynS-" id="76">
                    <mxCell style="html=1;overflow=block;blockSpacing=1;whiteSpace=wrap;ellipse;fontSize=20.2;spacing=3.8;strokeColor=none;strokeOpacity=100;fillOpacity=100;rounded=1;absoluteArcSize=1;arcSize=9;fillColor=#f4d9ff;strokeWidth=2.3;" parent="1" vertex="1">
                        <mxGeometry x="970" y="80" width="65" height="42" as="geometry"/>
                    </mxCell>
                </UserObject>
                <UserObject label="&lt;font style=&quot;font-size: 15px ; line-height: 1&quot;&gt;1,1&lt;/font&gt;" lucidchartObjectId="3bly9.hPKQTv" id="77">
                    <mxCell style="html=1;overflow=block;blockSpacing=1;whiteSpace=wrap;fontSize=20.2;spacing=3.8;strokeOpacity=0;fillOpacity=100;rounded=1;absoluteArcSize=1;arcSize=9;fillColor=none;strokeWidth=2;align=center;strokeColor=#000000;" parent="1" vertex="1">
                        <mxGeometry x="910" y="84" width="35" height="34" as="geometry"/>
                    </mxCell>
                </UserObject>
                <mxCell id="80" value="" style="edgeStyle=none;html=1;exitX=0;exitY=0.5;exitDx=0;exitDy=0;entryX=1;entryY=0.5;entryDx=0;entryDy=0;fontSize=15;fontColor=#000000;endArrow=none;endFill=0;strokeColor=#000000;" parent="1" source="76" target="77" edge="1">
                    <mxGeometry relative="1" as="geometry">
                        <mxPoint x="970.0000000000057" y="101" as="sourcePoint"/>
                        <mxPoint x="880" y="100.5" as="targetPoint"/>
                    </mxGeometry>
                </mxCell>
                <mxCell id="83" style="edgeStyle=none;html=1;exitX=0.5;exitY=1;exitDx=0;exitDy=0;entryX=0.5;entryY=0;entryDx=0;entryDy=0;fontSize=15;fontColor=#000000;endArrow=none;endFill=0;strokeColor=#000000;" parent="1" source="81" target="31" edge="1">
                    <mxGeometry relative="1" as="geometry"/>
                </mxCell>
                <UserObject label="&lt;font style=&quot;font-size: 15px ; line-height: 1&quot;&gt;1,1&lt;/font&gt;" lucidchartObjectId="3bly9.hPKQTv" id="81">
                    <mxCell style="html=1;overflow=block;blockSpacing=1;whiteSpace=wrap;fontSize=20.2;spacing=3.8;strokeOpacity=0;fillOpacity=100;rounded=1;absoluteArcSize=1;arcSize=9;fillColor=none;strokeWidth=2;align=center;strokeColor=#000000;" parent="1" vertex="1">
                        <mxGeometry x="1047.5" y="139" width="35" height="34" as="geometry"/>
                    </mxCell>
                </UserObject>
                <mxCell id="82" value="" style="edgeStyle=none;html=1;exitX=1;exitY=0.5;exitDx=0;exitDy=0;entryX=0.5;entryY=0;entryDx=0;entryDy=0;fontSize=15;fontColor=#000000;endArrow=none;endFill=0;strokeColor=#000000;" parent="1" source="76" target="81" edge="1">
                    <mxGeometry relative="1" as="geometry">
                        <mxPoint x="1034.999999999994" y="101" as="sourcePoint"/>
                        <mxPoint x="1065" y="214" as="targetPoint"/>
                        <Array as="points">
                            <mxPoint x="1065" y="101"/>
                        </Array>
                    </mxGeometry>
                </mxCell>
                <UserObject label="&lt;font color=&quot;#000000&quot; style=&quot;font-size: 15px&quot;&gt;HAS&lt;/font&gt;" lucidchartObjectId="G_kybPbdynS-" id="85">
                    <mxCell style="html=1;overflow=block;blockSpacing=1;whiteSpace=wrap;ellipse;fontSize=20.2;spacing=3.8;strokeColor=none;strokeOpacity=100;fillOpacity=100;rounded=1;absoluteArcSize=1;arcSize=9;fillColor=#f4d9ff;strokeWidth=2.3;" parent="1" vertex="1">
                        <mxGeometry x="970" y="498" width="65" height="42" as="geometry"/>
                    </mxCell>
                </UserObject>
                <mxCell id="86" value="" style="edgeStyle=none;html=1;exitX=1;exitY=0.5;exitDx=0;exitDy=0;entryX=0;entryY=0.5;entryDx=0;entryDy=0;fontSize=15;fontColor=#000000;endArrow=none;endFill=0;strokeColor=#000000;startArrow=none;" parent="1" source="87" target="85" edge="1">
                    <mxGeometry relative="1" as="geometry">
                        <mxPoint x="880" y="519" as="sourcePoint"/>
                        <mxPoint x="1065" y="395.727" as="targetPoint"/>
                        <Array as="points"/>
                    </mxGeometry>
                </mxCell>
                <UserObject label="&lt;font style=&quot;font-size: 15px ; line-height: 1&quot;&gt;1,1&lt;/font&gt;" lucidchartObjectId="3bly9.hPKQTv" id="87">
                    <mxCell style="html=1;overflow=block;blockSpacing=1;whiteSpace=wrap;fontSize=20.2;spacing=3.8;strokeOpacity=0;fillOpacity=100;rounded=1;absoluteArcSize=1;arcSize=9;fillColor=none;strokeWidth=2;align=center;strokeColor=#000000;" parent="1" vertex="1">
                        <mxGeometry x="910" y="502" width="35" height="34" as="geometry"/>
                    </mxCell>
                </UserObject>
                <mxCell id="88" value="" style="edgeStyle=none;html=1;entryX=0;entryY=0.5;entryDx=0;entryDy=0;fontSize=15;fontColor=#000000;endArrow=none;endFill=0;strokeColor=#000000;exitX=1.014;exitY=0.131;exitDx=0;exitDy=0;exitPerimeter=0;" parent="1" source="27" target="87" edge="1">
                    <mxGeometry relative="1" as="geometry">
                        <mxPoint x="890" y="624" as="sourcePoint"/>
                        <mxPoint x="969.9999999999925" y="619" as="targetPoint"/>
                        <Array as="points"/>
                    </mxGeometry>
                </mxCell>
                <UserObject label="&lt;font style=&quot;font-size: 15px ; line-height: 1&quot;&gt;1,1&lt;/font&gt;" lucidchartObjectId="3bly9.hPKQTv" id="89">
                    <mxCell style="html=1;overflow=block;blockSpacing=1;whiteSpace=wrap;fontSize=20.2;spacing=3.8;strokeOpacity=0;fillOpacity=100;rounded=1;absoluteArcSize=1;arcSize=9;fillColor=none;strokeWidth=2;align=center;strokeColor=#000000;fontColor=#000000;" parent="1" vertex="1">
                        <mxGeometry x="1047.5" y="444" width="35" height="34" as="geometry"/>
                    </mxCell>
                </UserObject>
                <mxCell id="90" value="" style="edgeStyle=none;html=1;exitX=1;exitY=0.5;exitDx=0;exitDy=0;entryX=0.5;entryY=1.011;entryDx=0;entryDy=0;entryPerimeter=0;fontSize=15;fontColor=#000000;endArrow=none;endFill=0;strokeColor=#000000;startArrow=none;" parent="1" source="85" target="89" edge="1">
                    <mxGeometry relative="1" as="geometry">
                        <mxPoint x="1035.000000000008" y="529" as="sourcePoint"/>
                        <mxPoint x="1065" y="405.727" as="targetPoint"/>
                        <Array as="points">
                            <mxPoint x="1065" y="519"/>
                        </Array>
                    </mxGeometry>
                </mxCell>
                <UserObject label="&lt;font color=&quot;#000000&quot; style=&quot;font-size: 15px&quot;&gt;HAS&lt;/font&gt;" lucidchartObjectId="G_kybPbdynS-" id="92">
                    <mxCell style="html=1;overflow=block;blockSpacing=1;whiteSpace=wrap;ellipse;fontSize=20.2;spacing=3.8;strokeColor=none;strokeOpacity=100;fillOpacity=100;rounded=1;absoluteArcSize=1;arcSize=9;fillColor=#f4d9ff;strokeWidth=2.3;" parent="1" vertex="1">
                        <mxGeometry x="970" y="586" width="65" height="42" as="geometry"/>
                    </mxCell>
                </UserObject>
                <mxCell id="93" value="" style="edgeStyle=none;html=1;exitX=1;exitY=0.5;exitDx=0;exitDy=0;entryX=0;entryY=0.5;entryDx=0;entryDy=0;fontSize=15;fontColor=#000000;endArrow=none;endFill=0;strokeColor=#000000;startArrow=none;" parent="1" source="94" target="92" edge="1">
                    <mxGeometry relative="1" as="geometry">
                        <mxPoint x="880" y="606.5" as="sourcePoint"/>
                        <mxPoint x="1065" y="694" as="targetPoint"/>
                        <Array as="points"/>
                    </mxGeometry>
                </mxCell>
                <UserObject label="&lt;font style=&quot;font-size: 15px ; line-height: 1&quot;&gt;1,1&lt;/font&gt;" lucidchartObjectId="3bly9.hPKQTv" id="94">
                    <mxCell style="html=1;overflow=block;blockSpacing=1;whiteSpace=wrap;fontSize=20.2;spacing=3.8;strokeOpacity=0;fillOpacity=100;rounded=1;absoluteArcSize=1;arcSize=9;fillColor=none;strokeWidth=2;align=center;strokeColor=#000000;" parent="1" vertex="1">
                        <mxGeometry x="910" y="590" width="35" height="34" as="geometry"/>
                    </mxCell>
                </UserObject>
                <mxCell id="95" value="" style="edgeStyle=none;html=1;exitX=0.999;exitY=0.351;exitDx=0;exitDy=0;entryX=0;entryY=0.5;entryDx=0;entryDy=0;fontSize=15;fontColor=#000000;endArrow=none;endFill=0;strokeColor=#000000;exitPerimeter=0;" parent="1" source="28" target="94" edge="1">
                    <mxGeometry relative="1" as="geometry">
                        <mxPoint x="880" y="686.5" as="sourcePoint"/>
                        <mxPoint x="969.9999999999925" y="687" as="targetPoint"/>
                        <Array as="points"/>
                    </mxGeometry>
                </mxCell>
                <UserObject label="&lt;font style=&quot;font-size: 15px ; line-height: 1&quot;&gt;0,N&lt;/font&gt;" lucidchartObjectId="3bly9.hPKQTv" id="96">
                    <mxCell style="html=1;overflow=block;blockSpacing=1;whiteSpace=wrap;fontSize=20.2;spacing=3.8;strokeOpacity=0;fillOpacity=100;rounded=1;absoluteArcSize=1;arcSize=9;fillColor=none;strokeWidth=2;align=center;strokeColor=#000000;fontColor=#000000;" parent="1" vertex="1">
                        <mxGeometry x="1047.5" y="640" width="35" height="34" as="geometry"/>
                    </mxCell>
                </UserObject>
                <mxCell id="97" value="" style="edgeStyle=none;html=1;exitX=1;exitY=0.5;exitDx=0;exitDy=0;entryX=0.5;entryY=0;entryDx=0;entryDy=0;fontSize=15;fontColor=#000000;endArrow=none;endFill=0;strokeColor=#000000;startArrow=none;" parent="1" source="92" target="96" edge="1">
                    <mxGeometry relative="1" as="geometry">
                        <mxPoint x="1035.000000000008" y="607" as="sourcePoint"/>
                        <mxPoint x="1065" y="694" as="targetPoint"/>
                        <Array as="points">
                            <mxPoint x="1065" y="607"/>
                        </Array>
                    </mxGeometry>
                </mxCell>
                <mxCell id="99" style="edgeStyle=none;html=1;exitX=1;exitY=0.5;exitDx=0;exitDy=0;entryX=0.001;entryY=0.343;entryDx=0;entryDy=0;fontSize=15;fontColor=#000000;startArrow=none;entryPerimeter=0;endArrow=none;endFill=0;strokeColor=#000000;" parent="1" source="104" target="43" edge="1">
                    <mxGeometry relative="1" as="geometry">
                        <mxPoint x="378.50000000000017" y="760.031" as="targetPoint"/>
                    </mxGeometry>
                </mxCell>
                <UserObject label="&lt;font color=&quot;#000000&quot; style=&quot;font-size: 15px&quot;&gt;HAS&lt;/font&gt;" lucidchartObjectId="G_kybPbdynS-" id="100">
                    <mxCell style="html=1;overflow=block;blockSpacing=1;whiteSpace=wrap;ellipse;fontSize=20.2;spacing=3.8;strokeColor=none;strokeOpacity=100;fillOpacity=100;rounded=1;absoluteArcSize=1;arcSize=9;fillColor=#f4d9ff;strokeWidth=2.3;" parent="1" vertex="1">
                        <mxGeometry x="243.95" y="740" width="65.45" height="40" as="geometry"/>
                    </mxCell>
                </UserObject>
                <mxCell id="101" value="" style="edgeStyle=none;html=1;exitX=1;exitY=0.5;exitDx=0;exitDy=0;entryX=0;entryY=0.5;entryDx=0;entryDy=0;fontSize=15;fontColor=#000000;endArrow=none;startArrow=none;strokeColor=#000000;" parent="1" source="102" target="100" edge="1">
                    <mxGeometry relative="1" as="geometry">
                        <mxPoint x="178.5" y="759.5" as="sourcePoint"/>
                        <mxPoint x="378.95000000000005" y="760.399" as="targetPoint"/>
                    </mxGeometry>
                </mxCell>
                <UserObject label="&lt;font style=&quot;font-size: 15px ; line-height: 1&quot;&gt;1,1&lt;/font&gt;" lucidchartObjectId="3bly9.hPKQTv" id="102">
                    <mxCell style="html=1;overflow=block;blockSpacing=1;whiteSpace=wrap;fontSize=20.2;spacing=3.8;strokeOpacity=0;fillOpacity=100;rounded=1;absoluteArcSize=1;arcSize=9;fillColor=none;strokeWidth=2;align=center;strokeColor=#000000;fontColor=#000000;" parent="1" vertex="1">
                        <mxGeometry x="194.95" y="743" width="35" height="34" as="geometry"/>
                    </mxCell>
                </UserObject>
                <mxCell id="103" value="" style="edgeStyle=none;html=1;exitX=1.005;exitY=0.277;exitDx=0;exitDy=0;entryX=0;entryY=0.5;entryDx=0;entryDy=0;fontSize=15;fontColor=#000000;endArrow=none;exitPerimeter=0;strokeColor=#000000;" parent="1" source="45" target="102" edge="1">
                    <mxGeometry relative="1" as="geometry">
                        <mxPoint x="180.00000000000017" y="759.8589999999999" as="sourcePoint"/>
                        <mxPoint x="243.94999999999976" y="760" as="targetPoint"/>
                    </mxGeometry>
                </mxCell>
                <UserObject label="&lt;font style=&quot;font-size: 15px ; line-height: 1&quot;&gt;1,N&lt;/font&gt;" lucidchartObjectId="3bly9.hPKQTv" id="104">
                    <mxCell style="html=1;overflow=block;blockSpacing=1;whiteSpace=wrap;fontSize=20.2;spacing=3.8;strokeOpacity=0;fillOpacity=100;rounded=1;absoluteArcSize=1;arcSize=9;fillColor=none;strokeWidth=2;align=center;strokeColor=#000000;fontColor=#000000;" parent="1" vertex="1">
                        <mxGeometry x="323.95" y="743" width="35" height="34" as="geometry"/>
                    </mxCell>
                </UserObject>
                <mxCell id="105" value="" style="edgeStyle=none;html=1;exitX=1;exitY=0.5;exitDx=0;exitDy=0;entryX=0;entryY=0.5;entryDx=0;entryDy=0;fontSize=15;fontColor=#000000;startArrow=none;endArrow=none;strokeColor=#000000;" parent="1" source="100" target="104" edge="1">
                    <mxGeometry relative="1" as="geometry">
                        <mxPoint x="378.50000000000006" y="760.031" as="targetPoint"/>
                        <mxPoint x="309.40000000000083" y="760" as="sourcePoint"/>
                    </mxGeometry>
                </mxCell>
                <mxCell id="107" style="edgeStyle=none;html=1;exitX=0.5;exitY=0;exitDx=0;exitDy=0;entryX=0.5;entryY=0.995;entryDx=0;entryDy=0;entryPerimeter=0;fontSize=15;fontColor=#000000;endArrow=none;endFill=0;strokeColor=#000000;startArrow=none;" parent="1" source="111" target="41" edge="1">
                    <mxGeometry relative="1" as="geometry"/>
                </mxCell>
                <mxCell id="108" style="edgeStyle=none;html=1;exitX=0.5;exitY=1;exitDx=0;exitDy=0;entryX=0.5;entryY=0;entryDx=0;entryDy=0;fontSize=15;fontColor=#000000;endArrow=none;endFill=0;strokeColor=#000000;startArrow=none;" parent="1" source="109" target="42" edge="1">
                    <mxGeometry relative="1" as="geometry"/>
                </mxCell>
                <UserObject label="&lt;font color=&quot;#000000&quot; style=&quot;font-size: 15px&quot;&gt;HAS&lt;/font&gt;" lucidchartObjectId="G_kybPbdynS-" id="106">
                    <mxCell style="html=1;overflow=block;blockSpacing=1;whiteSpace=wrap;ellipse;fontSize=20.2;spacing=3.8;strokeColor=none;strokeOpacity=100;fillOpacity=100;rounded=1;absoluteArcSize=1;arcSize=9;fillColor=#f4d9ff;strokeWidth=2.3;" parent="1" vertex="1">
                        <mxGeometry x="422.28" y="599" width="65.45" height="40" as="geometry"/>
                    </mxCell>
                </UserObject>
                <UserObject label="&lt;font style=&quot;font-size: 15px ; line-height: 1&quot;&gt;1,1&lt;/font&gt;" lucidchartObjectId="3bly9.hPKQTv" id="109">
                    <mxCell style="html=1;overflow=block;blockSpacing=1;whiteSpace=wrap;fontSize=20.2;spacing=3.8;strokeOpacity=0;fillOpacity=100;rounded=1;absoluteArcSize=1;arcSize=9;fillColor=none;strokeWidth=2;align=center;strokeColor=#000000;fontColor=#000000;" parent="1" vertex="1">
                        <mxGeometry x="437.5" y="650" width="35" height="34" as="geometry"/>
                    </mxCell>
                </UserObject>
                <mxCell id="110" value="" style="edgeStyle=none;html=1;exitX=0.5;exitY=1;exitDx=0;exitDy=0;entryX=0.5;entryY=0;entryDx=0;entryDy=0;fontSize=15;fontColor=#000000;endArrow=none;endFill=0;strokeColor=#000000;" parent="1" source="106" target="109" edge="1">
                    <mxGeometry relative="1" as="geometry">
                        <mxPoint x="455.0049999999999" y="639" as="sourcePoint"/>
                        <mxPoint x="455" y="694" as="targetPoint"/>
                    </mxGeometry>
                </mxCell>
                <UserObject label="&lt;font style=&quot;font-size: 15px ; line-height: 1&quot;&gt;N,N&lt;/font&gt;" lucidchartObjectId="3bly9.hPKQTv" id="111">
                    <mxCell style="html=1;overflow=block;blockSpacing=1;whiteSpace=wrap;fontSize=20.2;spacing=3.8;strokeOpacity=0;fillOpacity=100;rounded=1;absoluteArcSize=1;arcSize=9;fillColor=none;strokeWidth=2;align=center;strokeColor=#000000;fontColor=#000000;" parent="1" vertex="1">
                        <mxGeometry x="437.5" y="552" width="35" height="34" as="geometry"/>
                    </mxCell>
                </UserObject>
                <mxCell id="112" value="" style="edgeStyle=none;html=1;exitX=0.5;exitY=0;exitDx=0;exitDy=0;entryX=0.5;entryY=0.995;entryDx=0;entryDy=0;entryPerimeter=0;fontSize=15;fontColor=#000000;endArrow=none;endFill=0;strokeColor=#000000;" parent="1" source="106" target="111" edge="1">
                    <mxGeometry relative="1" as="geometry">
                        <mxPoint x="455.0049999999999" y="599" as="sourcePoint"/>
                        <mxPoint x="455" y="539.6650000000001" as="targetPoint"/>
                    </mxGeometry>
                </mxCell>
                <mxCell id="121" style="edgeStyle=none;html=1;exitX=0.5;exitY=1;exitDx=0;exitDy=0;entryX=0.5;entryY=0;entryDx=0;entryDy=0;fontSize=15;fontColor=#000000;endArrow=none;endFill=0;strokeColor=#000000;" parent="1" source="113" target="40" edge="1">
                    <mxGeometry relative="1" as="geometry"/>
                </mxCell>
                <UserObject label="&lt;font style=&quot;font-size: 15px ; line-height: 1&quot;&gt;1,1&lt;/font&gt;" lucidchartObjectId="3bly9.hPKQTv" id="113">
                    <mxCell style="html=1;overflow=block;blockSpacing=1;whiteSpace=wrap;fontSize=20.2;spacing=3.8;strokeOpacity=0;fillOpacity=100;rounded=1;absoluteArcSize=1;arcSize=9;fillColor=none;strokeWidth=2;align=center;strokeColor=#000000;fontColor=#000000;" parent="1" vertex="1">
                        <mxGeometry x="437.5" y="382" width="35" height="34" as="geometry"/>
                    </mxCell>
                </UserObject>
                <mxCell id="119" style="edgeStyle=none;html=1;exitX=0.5;exitY=0;exitDx=0;exitDy=0;entryX=0.5;entryY=1;entryDx=0;entryDy=0;fontSize=15;fontColor=#000000;endArrow=none;endFill=0;strokeColor=#000000;" parent="1" source="115" target="17" edge="1">
                    <mxGeometry relative="1" as="geometry"/>
                </mxCell>
                <UserObject label="&lt;font style=&quot;font-size: 15px ; line-height: 1&quot;&gt;N,N&lt;/font&gt;" lucidchartObjectId="3bly9.hPKQTv" id="115">
                    <mxCell style="html=1;overflow=block;blockSpacing=1;whiteSpace=wrap;fontSize=20.2;spacing=3.8;strokeOpacity=0;fillOpacity=100;rounded=1;absoluteArcSize=1;arcSize=9;fillColor=none;strokeWidth=2;align=center;strokeColor=#000000;fontColor=#000000;" parent="1" vertex="1">
                        <mxGeometry x="437.5" y="284" width="35" height="34" as="geometry"/>
                    </mxCell>
                </UserObject>
                <mxCell id="118" style="edgeStyle=none;html=1;exitX=0.5;exitY=0;exitDx=0;exitDy=0;entryX=0.5;entryY=1;entryDx=0;entryDy=0;fontSize=15;fontColor=#000000;endArrow=none;endFill=0;strokeColor=#000000;" parent="1" source="117" target="115" edge="1">
                    <mxGeometry relative="1" as="geometry"/>
                </mxCell>
                <mxCell id="120" style="edgeStyle=none;html=1;exitX=0.5;exitY=1;exitDx=0;exitDy=0;entryX=0.5;entryY=0;entryDx=0;entryDy=0;fontSize=15;fontColor=#000000;endArrow=none;endFill=0;strokeColor=#000000;" parent="1" source="117" target="113" edge="1">
                    <mxGeometry relative="1" as="geometry"/>
                </mxCell>
                <UserObject label="&lt;font color=&quot;#000000&quot; style=&quot;font-size: 15px&quot;&gt;HAS&lt;/font&gt;" lucidchartObjectId="G_kybPbdynS-" id="117">
                    <mxCell style="html=1;overflow=block;blockSpacing=1;whiteSpace=wrap;ellipse;fontSize=20.2;spacing=3.8;strokeColor=none;strokeOpacity=100;fillOpacity=100;rounded=1;absoluteArcSize=1;arcSize=9;fillColor=#f4d9ff;strokeWidth=2.3;" parent="1" vertex="1">
                        <mxGeometry x="422.28" y="330" width="65.45" height="40" as="geometry"/>
                    </mxCell>
                </UserObject>
                <mxCell id="124" style="edgeStyle=none;html=1;exitX=0.5;exitY=0;exitDx=0;exitDy=0;entryX=1.018;entryY=0.832;entryDx=0;entryDy=0;entryPerimeter=0;fontSize=15;fontColor=#000000;endArrow=none;endFill=0;strokeColor=#000000;startArrow=none;" parent="1" source="126" target="18" edge="1">
                    <mxGeometry relative="1" as="geometry">
                        <Array as="points">
                            <mxPoint x="639" y="243"/>
                        </Array>
                    </mxGeometry>
                </mxCell>
                <mxCell id="122" value="&lt;div style=&quot;display: flex ; justify-content: center ; text-align: center ; align-items: baseline ; line-height: 1.25 ; margin-top: -2px&quot;&gt;&lt;span style=&quot;color: rgb(29 , 38 , 43)&quot;&gt;&lt;font style=&quot;font-size: 15px&quot;&gt;ORGANIZER&lt;/font&gt;&lt;/span&gt;&lt;/div&gt;" style="swimlane;startSize=25;html=1;whiteSpace=wrap;container=1;collapsible=0;childLayout=stackLayout;resizeParent=1;dropTarget=0;rounded=1;arcSize=20;fontStyle=0;overflow=block;blockSpacing=1;fontSize=13;spacing=0;strokeColor=none;strokeOpacity=100;fillOpacity=100;fillColor=#fad9d5;strokeWidth=2.3;swimlaneFillColor=#f4d9ff;" parent="1" vertex="1">
                    <mxGeometry x="564" y="352" width="150" height="66" as="geometry"/>
                </mxCell>
                <mxCell id="123" value="&lt;div style=&quot;display: flex ; justify-content: center ; text-align: center ; align-items: baseline ; line-height: 1.25 ; margin-top: -2px&quot;&gt;&lt;span style=&quot;color: rgb(29 , 38 , 43)&quot;&gt;&lt;font style=&quot;font-size: 15px&quot;&gt;code organizer&lt;/font&gt;&lt;/span&gt;&lt;/div&gt;" style="rounded=1;arcSize=20;strokeColor=none;fillColor=none;whiteSpace=wrap;overflow=block;blockSpacing=1;html=1;fontSize=13;spacing=0;strokeOpacity=100;fillOpacity=100;strokeWidth=2.3;" parent="122" vertex="1">
                    <mxGeometry y="25" width="150" height="41" as="geometry"/>
                </mxCell>
                <mxCell id="125" style="edgeStyle=none;html=1;exitX=0.5;exitY=1;exitDx=0;exitDy=0;entryX=-0.013;entryY=0.157;entryDx=0;entryDy=0;entryPerimeter=0;fontSize=15;fontColor=#000000;endArrow=none;endFill=0;strokeColor=#000000;startArrow=none;" parent="1" source="129" target="28" edge="1">
                    <mxGeometry relative="1" as="geometry">
                        <Array as="points">
                            <mxPoint x="639" y="563"/>
                        </Array>
                    </mxGeometry>
                </mxCell>
                <mxCell id="128" style="edgeStyle=none;html=1;exitX=0.5;exitY=1;exitDx=0;exitDy=0;entryX=0.5;entryY=0;entryDx=0;entryDy=0;fontSize=15;fontColor=#000000;endArrow=none;endFill=0;strokeColor=#000000;" parent="1" source="126" target="122" edge="1">
                    <mxGeometry relative="1" as="geometry"/>
                </mxCell>
                <UserObject label="&lt;font style=&quot;font-size: 15px ; line-height: 1&quot;&gt;0,N&lt;/font&gt;" lucidchartObjectId="3bly9.hPKQTv" id="126">
                    <mxCell style="html=1;overflow=block;blockSpacing=1;whiteSpace=wrap;fontSize=20.2;spacing=3.8;strokeOpacity=0;fillOpacity=100;rounded=1;absoluteArcSize=1;arcSize=9;fillColor=none;strokeWidth=2;align=center;strokeColor=#000000;fontColor=#000000;" parent="1" vertex="1">
                        <mxGeometry x="621.5" y="260" width="35" height="34" as="geometry"/>
                    </mxCell>
                </UserObject>
                <UserObject label="&lt;font style=&quot;font-size: 15px ; line-height: 1&quot;&gt;0,N&lt;/font&gt;" lucidchartObjectId="3bly9.hPKQTv" id="129">
                    <mxCell style="html=1;overflow=block;blockSpacing=1;whiteSpace=wrap;fontSize=20.2;spacing=3.8;strokeOpacity=0;fillOpacity=100;rounded=1;absoluteArcSize=1;arcSize=9;fillColor=none;strokeWidth=2;align=center;strokeColor=#000000;fontColor=#000000;" parent="1" vertex="1">
                        <mxGeometry x="621.5" y="484" width="35" height="34" as="geometry"/>
                    </mxCell>
                </UserObject>
                <mxCell id="130" value="" style="edgeStyle=none;html=1;exitX=0.5;exitY=1;exitDx=0;exitDy=0;entryX=0.5;entryY=0;entryDx=0;entryDy=0;fontSize=15;fontColor=#000000;endArrow=none;endFill=0;strokeColor=#000000;" parent="1" source="123" target="129" edge="1">
                    <mxGeometry relative="1" as="geometry">
                        <mxPoint x="639" y="418" as="sourcePoint"/>
                        <mxPoint x="728.05" y="562.6390000000001" as="targetPoint"/>
                        <Array as="points"/>
                    </mxGeometry>
                </mxCell>
                <UserObject label="&lt;font style=&quot;font-size: 15px ; line-height: 1&quot;&gt;1,1&lt;/font&gt;" lucidchartObjectId="3bly9.hPKQTv" id="131">
                    <mxCell style="html=1;overflow=block;blockSpacing=1;whiteSpace=wrap;fontSize=20.2;spacing=3.8;strokeOpacity=0;fillOpacity=100;rounded=1;absoluteArcSize=1;arcSize=9;fillColor=none;strokeWidth=2;align=center;strokeColor=#000000;fontColor=#000000;" parent="1" vertex="1">
                        <mxGeometry x="910" y="84" width="35" height="34" as="geometry"/>
                    </mxCell>
                </UserObject>
                <UserObject label="&lt;font style=&quot;font-size: 15px ; line-height: 1&quot;&gt;1,1&lt;/font&gt;" lucidchartObjectId="3bly9.hPKQTv" id="132">
                    <mxCell style="html=1;overflow=block;blockSpacing=1;whiteSpace=wrap;fontSize=20.2;spacing=3.8;strokeOpacity=0;fillOpacity=100;rounded=1;absoluteArcSize=1;arcSize=9;fillColor=none;strokeWidth=2;align=center;strokeColor=#000000;fontColor=#000000;" parent="1" vertex="1">
                        <mxGeometry x="1047.5" y="139" width="35" height="34" as="geometry"/>
                    </mxCell>
                </UserObject>
                <UserObject label="&lt;font style=&quot;font-size: 15px ; line-height: 1&quot;&gt;1,1&lt;/font&gt;" lucidchartObjectId="3bly9.hPKQTv" id="133">
                    <mxCell style="html=1;overflow=block;blockSpacing=1;whiteSpace=wrap;fontSize=20.2;spacing=3.8;strokeOpacity=0;fillOpacity=100;rounded=1;absoluteArcSize=1;arcSize=9;fillColor=none;strokeWidth=2;align=center;strokeColor=#000000;fontColor=#000000;" parent="1" vertex="1">
                        <mxGeometry x="910" y="502" width="35" height="34" as="geometry"/>
                    </mxCell>
                </UserObject>
            </root>
        </mxGraphModel>
    </diagram>
</mxfile>